<?xml version="1.0" encoding="UTF-8"?>
<svg id="Calque_1" data-name="Calque 1" xmlns="http://www.w3.org/2000/svg" viewBox="0 0 141.73 141.73">
  <defs>
    <style>
      .cls-1 {
        fill: #e8aabf;
        stroke: #c93c67;
        stroke-linecap: round;
        stroke-linejoin: round;
        stroke-width: 5px;
      }
    </style>
  </defs>
  <path class="cls-1" d="M100.11,41.41c0,.95-.11,1.87-.31,2.76,.89-.2,1.81-.31,2.76-.31,6.77,0,12.25,5.48,12.25,12.25s-5.48,12.25-12.25,12.25c-3.72,0-7.64-.8-10.97,.85-3.89,1.93-7.45,4.48-10.55,7.58l-6.79,6.79c-3.1,3.1-5.66,6.67-7.58,10.56-1.65,3.33-.85,7.25-.85,10.97,0,6.77-5.48,12.25-12.25,12.25s-12.25-5.48-12.25-12.25c0-.95,.11-1.87,.31-2.76-.89,.2-1.81,.31-2.76,.31-6.77,0-12.25-5.48-12.25-12.25s5.48-12.25,12.25-12.25c3.72,0,7.64,.8,10.97-.85,3.88-1.93,7.45-4.48,10.55-7.58l6.79-6.79c3.1-3.1,5.66-6.67,7.58-10.55,1.65-3.33,.85-7.25,.85-10.97,0-6.77,5.48-12.25,12.25-12.25s12.25,5.48,12.25,12.25Z"/>
  <path class="cls-1" d="M91.6,92.55l5.35,5.35"/>
  <path class="cls-1" d="M48.83,49.78l-5.35-5.35"/>
  <path class="cls-1" d="M81.56,97.63v3.78"/>
  <path class="cls-1" d="M43.75,59.82h-3.78"/>
  <path class="cls-1" d="M96.68,82.51h3.78"/>
  <path class="cls-1" d="M58.87,44.7v-3.78"/>
</svg>