<?xml version="1.0" encoding="UTF-8"?>
<svg id="Calque_1" data-name="Calque 1" xmlns="http://www.w3.org/2000/svg" viewBox="0 0 141.73 141.73">
  <defs>
    <style>
      .cls-1 {
        fill: none;
        stroke: #010101;
        stroke-linecap: round;
        stroke-linejoin: round;
        stroke-width: 10px;
      }
    </style>
  </defs>
  <path class="cls-1" d="M118.72,75.71l-1.41,9.8c-2.47,17.14-3.7,25.71-9.65,30.83-5.95,5.12-14.67,5.12-32.11,5.12h-11.19c-17.44,0-26.16,0-32.11-5.12-5.95-5.12-7.18-13.69-9.65-30.83l-1.41-9.8c-1.92-13.34-2.88-20.02-.15-25.72,2.73-5.7,8.56-9.17,20.2-16.11l7.01-4.17c10.57-6.3,15.86-9.45,21.7-9.45s11.13,3.15,21.7,9.45l7.01,4.17c11.64,6.94,17.46,10.4,20.2,16.11"/>
  <g id="d01EMF">
    <g>
      <path d="M76.9,94.69c1.83,.02,3.73-.39,5.28-1.12,3.48-1.64,5.24-4.95,4.47-8.53-.58-2.73-2.19-4.83-4.41-6.43-2.02-1.45-3.51-3.27-4.68-5.46-1.75-3.28-4.59-5.03-8.32-5.08-3.61-.05-6.43,1.54-8.31,4.62-1.48,2.41-3.26,4.51-5.43,6.31-.72,.59-1.38,1.27-1.96,2-1.57,1.98-2.44,4.22-2.04,6.77,.47,3,2.35,4.9,5.07,6.02,3.15,1.29,6.35,1.14,9.53,.09,2.04-.67,4.04-.68,6.07,.02,1.53,.53,3.11,.77,4.73,.79Zm-5.95-37.08c0,.42-.01,.84,0,1.26,.09,2.23,.72,4.29,2.11,6.06,2.45,3.13,6.46,3.37,9.09,.48,2.19-2.42,2.98-5.34,2.37-8.51-.68-3.48-2.69-6.21-5.48-8.34-.79-.6-1.73-1.05-2.68-1.37-1.43-.48-2.72,.02-3.54,1.28-.4,.62-.72,1.31-.95,2.01-.77,2.31-.87,4.72-.92,7.13Zm-3.6,.09c-.1-1.35-.16-2.71-.31-4.05-.19-1.67-.51-3.33-1.37-4.81-.83-1.43-2.03-2.04-3.54-1.71-.64,.14-1.29,.39-1.85,.72-2.71,1.6-4.58,3.96-5.85,6.79-1.47,3.27-1.12,6.45,.67,9.48,1.07,1.8,2.61,3.06,4.78,3.28,2.28,.23,4.03-.82,5.38-2.57,1.61-2.1,2.14-4.52,2.1-7.12Zm14.19,15.28c.12,.79,.17,1.5,.34,2.18,.9,3.64,4.33,5.2,7.68,3.51,1.18-.6,2.14-1.46,2.95-2.5,1.94-2.49,2.26-5.32,1.7-8.32-.34-1.81-.95-3.5-2.16-4.93-1.34-1.59-3.01-1.82-4.73-.64-.39,.27-.76,.58-1.09,.92-1.97,2.07-3.32,4.52-4.21,7.21-.28,.84-.33,1.75-.48,2.56Zm-37.76-2.6c-.05,3.25,1.4,6.21,4.62,8.12,3.43,2.03,7.05,.41,8-3.46,.31-1.27,.33-2.54,.03-3.81-.61-2.66-1.92-4.98-3.61-7.09-.65-.8-1.46-1.53-2.32-2.1-1.31-.87-2.67-.68-3.83,.4-.44,.41-.84,.9-1.16,1.41-1.14,1.85-1.61,3.9-1.74,6.52Z"/>
      <path d="M76.9,94.69c-1.62-.02-3.2-.26-4.73-.79-2.03-.7-4.03-.69-6.07-.02-3.18,1.05-6.38,1.2-9.53-.09-2.72-1.11-4.6-3.02-5.07-6.02-.4-2.55,.47-4.79,2.04-6.77,.58-.73,1.25-1.41,1.96-2,2.17-1.8,3.95-3.9,5.43-6.31,1.88-3.07,4.7-4.67,8.31-4.62,3.73,.05,6.57,1.8,8.32,5.08,1.17,2.19,2.66,4.01,4.68,5.46,2.22,1.59,3.82,3.7,4.41,6.43,.77,3.58-1,6.88-4.47,8.53-1.55,.73-3.45,1.14-5.28,1.12Z"/>
      <path d="M70.94,57.61c.06-2.41,.16-4.82,.92-7.13,.23-.7,.55-1.39,.95-2.01,.82-1.26,2.11-1.76,3.54-1.28,.94,.32,1.89,.77,2.68,1.37,2.79,2.13,4.8,4.86,5.48,8.34,.62,3.17-.18,6.1-2.37,8.51-2.62,2.89-6.64,2.65-9.09-.48-1.39-1.78-2.02-3.83-2.11-6.06-.02-.42,0-.84,0-1.26Z"/>
      <path d="M67.34,57.7c.05,2.6-.49,5.03-2.1,7.12-1.35,1.75-3.1,2.8-5.38,2.57-2.17-.22-3.71-1.48-4.78-3.28-1.79-3.03-2.14-6.21-.67-9.48,1.27-2.84,3.14-5.19,5.85-6.79,.56-.33,1.21-.58,1.85-.72,1.51-.33,2.71,.28,3.54,1.71,.86,1.49,1.18,3.14,1.37,4.81,.15,1.35,.21,2.7,.31,4.05Z"/>
      <path d="M81.53,72.98c.14-.81,.2-1.72,.48-2.56,.89-2.69,2.24-5.14,4.21-7.21,.33-.34,.7-.66,1.09-.92,1.71-1.18,3.38-.95,4.73,.64,1.21,1.43,1.82,3.12,2.16,4.93,.56,3,.24,5.82-1.7,8.32-.81,1.04-1.76,1.91-2.95,2.5-3.35,1.69-6.78,.14-7.68-3.51-.17-.68-.22-1.39-.34-2.18Z"/>
      <path d="M43.77,70.39c.13-2.62,.6-4.67,1.74-6.52,.32-.51,.71-1,1.16-1.41,1.16-1.07,2.52-1.26,3.83-.4,.86,.57,1.67,1.29,2.32,2.1,1.69,2.1,3,4.43,3.61,7.09,.29,1.26,.28,2.54-.03,3.81-.95,3.87-4.57,5.49-8,3.46-3.23-1.91-4.67-4.87-4.62-8.12Z"/>
    </g>
  </g>
</svg>