<?xml version="1.0" encoding="UTF-8"?>
<svg id="Calque_1" data-name="Calque 1" xmlns="http://www.w3.org/2000/svg" viewBox="0 0 141.73 141.73">
  <defs>
    <style>
      .cls-1 {
        fill: none;
        stroke: #010101;
        stroke-linecap: round;
        stroke-linejoin: round;
        stroke-width: 10px;
      }
    </style>
  </defs>
  <path class="cls-1" d="M94.41,56.15l29.43,29.43m0-29.43l-29.43,29.43M27.31,53.21h5.3c3.24,0,4.86,0,6.37-.4,1.33-.36,2.59-.95,3.72-1.74,1.27-.9,2.31-2.14,4.39-4.63l15.46-18.55c2.56-3.08,3.85-4.62,4.97-4.78,.97-.14,1.95,.21,2.6,.94,.76,.84,.76,2.84,.76,6.85V110.83c0,4.01,0,6.01-.76,6.85-.66,.73-1.63,1.08-2.6,.94-1.12-.16-2.4-1.7-4.97-4.78l-15.46-18.55c-2.08-2.49-3.11-3.74-4.39-4.63-1.13-.79-2.39-1.38-3.72-1.74-1.5-.4-3.12-.4-6.37-.4h-5.3c-3.3,0-4.94,0-6.2-.64-1.11-.56-2.01-1.46-2.57-2.57-.64-1.26-.64-2.91-.64-6.2v-16.48c0-3.3,0-4.94,.64-6.2,.56-1.11,1.46-2.01,2.57-2.57,1.26-.64,2.91-.64,6.2-.64Z"/>
</svg>