<?xml version="1.0" encoding="UTF-8"?>
<svg id="Calque_1" data-name="Calque 1" xmlns="http://www.w3.org/2000/svg" viewBox="0 0 141.73 141.73">
  <defs>
    <style>
      .cls-1 {
        fill: none;
        stroke: #010101;
        stroke-linecap: round;
        stroke-linejoin: round;
        stroke-width: 10px;
      }
    </style>
  </defs>
  <path class="cls-1" d="M27.01,44.55c0-8.27,0-12.4,2.57-14.97,2.57-2.57,6.7-2.57,14.97-2.57s12.4,0,14.97,2.57c2.57,2.57,2.57,6.7,2.57,14.97v52.62c0,8.27,0,12.4-2.57,14.97-2.57,2.57-6.7,2.57-14.97,2.57s-12.4,0-14.97-2.57c-2.57-2.57-2.57-6.7-2.57-14.97V44.55Z"/>
  <path class="cls-1" d="M79.64,44.55c0-8.27,0-12.4,2.57-14.97,2.57-2.57,6.7-2.57,14.97-2.57s12.4,0,14.97,2.57c2.57,2.57,2.57,6.7,2.57,14.97v52.62c0,8.27,0,12.4-2.57,14.97s-6.7,2.57-14.97,2.57-12.4,0-14.97-2.57-2.57-6.7-2.57-14.97V44.55Z"/>
</svg>