<?xml version="1.0" encoding="UTF-8"?>
<svg id="Calque_1" data-name="Calque 1" xmlns="http://www.w3.org/2000/svg" viewBox="0 0 141.73 141.73">
  <g id="d01EMF">
    <g>
      <path d="M88.06,123.46c4.04,.04,8.23-.85,11.66-2.48,7.67-3.63,11.56-10.93,9.87-18.82-1.29-6.03-4.83-10.67-9.73-14.18-4.47-3.21-7.76-7.22-10.34-12.06-3.87-7.24-10.12-11.1-18.36-11.22-7.97-.12-14.19,3.41-18.34,10.19-3.26,5.32-7.19,9.96-11.99,13.93-1.58,1.31-3.05,2.81-4.33,4.41-3.46,4.36-5.38,9.31-4.5,14.94,1.04,6.62,5.2,10.82,11.2,13.28,6.95,2.85,14.02,2.52,21.04,.21,4.5-1.48,8.92-1.51,13.39,.04,3.37,1.17,6.86,1.71,10.43,1.75Zm-13.14-81.84c0,.93-.03,1.86,0,2.78,.2,4.93,1.59,9.46,4.66,13.38,5.41,6.9,14.26,7.44,20.05,1.06,4.84-5.33,6.59-11.79,5.22-18.79-1.5-7.68-5.94-13.71-12.09-18.4-1.73-1.33-3.83-2.32-5.91-3.02-3.16-1.06-6.01,.05-7.81,2.83-.88,1.36-1.59,2.88-2.1,4.43-1.69,5.1-1.91,10.42-2.04,15.74Zm-7.95,.2c-.22-2.98-.35-5.98-.69-8.95-.42-3.69-1.12-7.34-3.03-10.62-1.83-3.16-4.48-4.5-7.81-3.78-1.42,.31-2.85,.85-4.09,1.59-5.97,3.53-10.1,8.73-12.91,14.99-3.24,7.21-2.47,14.24,1.48,20.93,2.35,3.98,5.77,6.76,10.54,7.24,5.04,.5,8.9-1.8,11.87-5.68,3.55-4.62,4.73-9.98,4.63-15.72Zm31.31,33.72c.26,1.75,.37,3.32,.75,4.82,2,8.04,9.57,11.47,16.96,7.74,2.61-1.32,4.72-3.23,6.5-5.52,4.27-5.5,4.98-11.74,3.75-18.36-.74-3.98-2.1-7.73-4.76-10.88-2.97-3.51-6.65-4.01-10.43-1.41-.86,.59-1.69,1.28-2.41,2.04-4.35,4.57-7.33,9.97-9.3,15.91-.61,1.85-.73,3.87-1.05,5.66Zm-83.33-5.73c-.1,7.18,3.08,13.71,10.2,17.92,7.57,4.48,15.56,.9,17.65-7.64,.68-2.8,.72-5.62,.08-8.4-1.35-5.86-4.24-11-7.96-15.64-1.43-1.78-3.21-3.37-5.12-4.63-2.9-1.91-5.9-1.49-8.46,.88-.98,.91-1.85,1.98-2.55,3.12-2.51,4.08-3.56,8.61-3.84,14.39Z"/>
      <path d="M88.06,123.46c-3.57-.04-7.06-.58-10.43-1.75-4.47-1.55-8.89-1.52-13.39-.04-7.02,2.31-14.09,2.64-21.04-.21-6-2.46-10.16-6.67-11.2-13.28-.88-5.64,1.03-10.58,4.5-14.94,1.28-1.61,2.75-3.1,4.33-4.41,4.79-3.97,8.73-8.62,11.99-13.93,4.15-6.78,10.37-10.3,18.34-10.19,8.24,.12,14.5,3.98,18.36,11.22,2.58,4.84,5.87,8.85,10.34,12.06,4.9,3.52,8.44,8.16,9.73,14.18,1.69,7.89-2.2,15.19-9.87,18.82-3.43,1.62-7.62,2.51-11.66,2.47Z"/>
      <path d="M74.92,41.62c.12-5.32,.35-10.63,2.04-15.74,.51-1.54,1.22-3.07,2.1-4.43,1.8-2.78,4.65-3.89,7.81-2.83,2.08,.7,4.17,1.7,5.91,3.02,6.15,4.7,10.59,10.72,12.09,18.4,1.36,6.99-.39,13.45-5.22,18.79-5.79,6.39-14.65,5.85-20.05-1.06-3.07-3.92-4.46-8.45-4.66-13.38-.04-.93,0-1.86,0-2.78Z"/>
      <path d="M66.97,41.82c.1,5.74-1.07,11.09-4.63,15.72-2.98,3.87-6.83,6.18-11.87,5.68-4.78-.48-8.19-3.26-10.54-7.24-3.95-6.68-4.72-13.72-1.48-20.93,2.81-6.26,6.94-11.46,12.91-14.99,1.25-.74,2.68-1.28,4.09-1.59,3.33-.72,5.98,.63,7.81,3.78,1.9,3.28,2.61,6.93,3.03,10.62,.34,2.97,.47,5.97,.69,8.95Z"/>
      <path d="M98.29,75.54c.32-1.79,.44-3.81,1.05-5.66,1.97-5.95,4.95-11.35,9.3-15.91,.72-.76,1.55-1.45,2.41-2.04,3.78-2.6,7.46-2.1,10.43,1.41,2.66,3.15,4.02,6.89,4.76,10.88,1.23,6.61,.52,12.85-3.75,18.36-1.78,2.3-3.89,4.21-6.5,5.52-7.39,3.73-14.96,.3-16.96-7.74-.37-1.5-.48-3.07-.75-4.82Z"/>
      <path d="M14.95,69.81c.28-5.78,1.33-10.31,3.84-14.39,.7-1.14,1.57-2.21,2.55-3.12,2.55-2.37,5.56-2.79,8.46-.88,1.9,1.26,3.69,2.85,5.12,4.63,3.72,4.64,6.61,9.77,7.96,15.64,.64,2.79,.61,5.6-.08,8.4-2.09,8.54-10.08,12.12-17.65,7.64-7.12-4.21-10.3-10.75-10.2-17.92Z"/>
    </g>
  </g>
</svg>