<?xml version="1.0" encoding="UTF-8"?>
<svg id="Calque_1" data-name="Calque 1" xmlns="http://www.w3.org/2000/svg" viewBox="0 0 141.73 141.73">
  <defs>
    <style>
      .cls-1 {
        fill: #e8aabf;
      }

      .cls-2 {
        fill: #c93c67;
      }
    </style>
  </defs>
  <g id="d01EMF">
    <g>
      <g>
        <path class="cls-1" d="M57.42,121c-3.25,0-6.43-.62-9.43-1.85-5.67-2.32-8.84-6.04-9.67-11.36-.7-4.48,.6-8.74,3.99-13,1.16-1.47,2.5-2.83,3.97-4.05,4.94-4.09,9.03-8.85,12.52-14.55,3.66-5.97,8.98-9,15.83-9h.34c7.29,.11,12.74,3.44,16.2,9.9,2.89,5.41,6.52,9.63,11.09,12.91,4.73,3.39,7.67,7.66,8.74,12.67,1.44,6.73-1.81,12.88-8.5,16.04-3.01,1.42-6.78,2.24-10.35,2.24,0,0-.21,0-.21,0-3.41-.04-6.66-.58-9.64-1.61-2.48-.86-5-1.29-7.51-1.29s-4.97,.42-7.48,1.24c-3.44,1.13-6.76,1.71-9.89,1.71Zm-21.78-33.83c-1.78,0-3.58-.54-5.36-1.59-5.97-3.53-9.07-8.97-8.97-15.73,.27-5.67,1.31-9.61,3.47-13.12,.59-.95,1.32-1.85,2.12-2.6,1.01-.94,2.04-1.41,3.05-1.41,.75,0,1.54,.27,2.33,.79,1.73,1.14,3.3,2.56,4.54,4.11,3.88,4.82,6.32,9.61,7.48,14.63,.55,2.38,.52,4.82-.07,7.25-1.16,4.73-4.45,7.67-8.58,7.67,0,0,0,0,0,0Zm78.2-.06c-4.14,0-7.41-2.82-8.53-7.35-.22-.87-.33-1.8-.47-2.88-.05-.43-.11-.86-.17-1.31,.07-.45,.14-.92,.2-1.39,.17-1.2,.34-2.44,.69-3.51,1.98-5.99,4.84-10.89,8.74-14.98,.59-.62,1.26-1.19,2.01-1.7,1.16-.8,2.26-1.2,3.27-1.2,1.33,0,2.62,.73,3.83,2.17,2.1,2.48,3.44,5.57,4.21,9.72,1.25,6.69,.21,11.89-3.27,16.37-1.69,2.18-3.54,3.76-5.65,4.83-1.63,.82-3.27,1.24-4.87,1.24Zm-19.88-26.29c-3.21,0-6.26-1.62-8.57-4.57-2.59-3.31-3.94-7.21-4.13-11.94-.02-.59-.02-1.18,0-1.78v-.91c.13-5.38,.36-10.26,1.92-14.95,.46-1.38,1.09-2.72,1.83-3.85,.9-1.38,2.04-2.08,3.4-2.08,.48,0,.99,.09,1.52,.27,2.02,.68,3.82,1.59,5.19,2.64,6.13,4.68,9.88,10.36,11.15,16.9,1.23,6.3-.33,11.89-4.62,16.63-2.14,2.36-4.86,3.65-7.67,3.65h0Zm-38.29-.03c-.36,0-.73-.02-1.1-.06-3.63-.36-6.46-2.33-8.64-6.02-3.72-6.29-4.16-12.38-1.36-18.63,2.81-6.25,6.7-10.78,11.9-13.86,.99-.58,2.18-1.04,3.35-1.3,.41-.09,.8-.13,1.16-.13,.59,0,2.37,0,3.95,2.73,1.76,3.03,2.35,6.58,2.7,9.65,.23,2,.36,4.07,.49,6.07,.06,.9,.12,1.81,.18,2.71,.09,5.76-1.25,10.36-4.11,14.08-2.47,3.21-5.26,4.77-8.54,4.77h0Z"/>
        <path class="cls-2" d="M88.41,23.23c.21,0,.45,.05,.72,.14,1.77,.59,3.31,1.37,4.47,2.26,5.7,4.36,9.04,9.39,10.21,15.39,1.07,5.48-.28,10.35-4.02,14.47-1.68,1.85-3.69,2.83-5.82,2.83-2.43,0-4.77-1.28-6.6-3.61-2.26-2.88-3.43-6.31-3.6-10.5-.02-.51-.01-1.06,0-1.65,0-.29,0-.58,0-.87,.12-5.21,.34-9.88,1.78-14.22,.39-1.19,.93-2.32,1.55-3.28,.61-.95,1.11-.95,1.3-.95m-27.41,.04c.3,0,.93,0,1.79,1.48,1.52,2.63,2.05,5.72,2.38,8.68,.22,1.94,.35,3.89,.48,5.95,.06,.89,.12,1.77,.18,2.65,.07,5.21-1.07,9.16-3.59,12.45-2.61,3.4-5,3.79-6.56,3.79-.28,0-.56-.01-.85-.04-1.78-.18-4.41-.87-6.74-4.81-3.27-5.54-3.68-10.88-1.23-16.34,2.59-5.76,6.15-9.93,10.9-12.73,.76-.45,1.69-.81,2.61-1.01,.23-.05,.45-.08,.63-.08m22.78,18.34h0m-53.83,13.6c.32,0,.69,.21,.95,.38,1.52,1,2.89,2.24,3.97,3.59,3.63,4.52,5.92,8.98,6.99,13.63,.46,2,.44,4.05-.06,6.1-.88,3.61-3.18,5.77-6.15,5.77-1.3,0-2.72-.43-4.09-1.24-5.13-3.03-7.81-7.69-7.75-13.46,.26-5.25,1.19-8.82,3.1-11.92,.47-.76,1.06-1.48,1.7-2.08,.51-.47,1-.75,1.35-.75m89.64,.07c.7,0,1.43,.7,1.93,1.28,1.81,2.14,2.97,4.86,3.66,8.56,1.1,5.94,.22,10.51-2.78,14.38-1.46,1.88-3.03,3.23-4.8,4.13-1.28,.64-2.53,.97-3.74,.97-2.98,0-5.26-2.04-6.11-5.45-.18-.73-.29-1.59-.42-2.59-.04-.32-.08-.64-.13-.97,.06-.36,.11-.72,.15-1.08,.16-1.14,.31-2.22,.59-3.07,1.86-5.63,4.54-10.22,8.18-14.04,.46-.48,1.02-.96,1.62-1.37,.71-.49,1.37-.76,1.85-.76m-44.96,14.41h.31c6.4,.09,10.99,2.9,14.03,8.58,3.07,5.75,6.95,10.26,11.83,13.76,4.26,3.06,6.8,6.71,7.75,11.17,.58,2.7,.25,5.34-.96,7.63-1.24,2.36-3.37,4.3-6.16,5.62-2.68,1.27-6.07,2-9.28,2h-.18c-3.15-.04-6.13-.53-8.85-1.48-2.74-.95-5.54-1.43-8.33-1.43-2.72,0-5.5,.46-8.26,1.37-3.18,1.05-6.25,1.58-9.1,1.58s-5.74-.55-8.48-1.67c-4.86-1.99-7.45-4.99-8.15-9.43-.59-3.75,.55-7.37,3.47-11.06,1.06-1.33,2.27-2.57,3.61-3.68,5.15-4.27,9.42-9.24,13.06-15.17,3.22-5.25,7.7-7.8,13.7-7.8h0m13.78-51.47c-2.21,0-4.14,1.14-5.49,3.22-.88,1.36-1.59,2.88-2.1,4.43-1.69,5.1-1.91,10.42-2.04,15.74,0,.93-.03,1.86,0,2.78,.2,4.93,1.59,9.46,4.66,13.38,2.86,3.66,6.7,5.53,10.53,5.53,3.4,0,6.8-1.47,9.52-4.47,4.84-5.33,6.59-11.79,5.22-18.79-1.5-7.68-5.94-13.71-12.09-18.4-1.73-1.33-3.83-2.32-5.91-3.02-.8-.27-1.57-.4-2.32-.4h0Zm-27.41,.04c-.54,0-1.11,.06-1.69,.19-1.42,.31-2.85,.85-4.09,1.59-5.97,3.53-10.1,8.73-12.91,14.99-3.24,7.21-2.47,14.24,1.48,20.93,2.35,3.98,5.77,6.76,10.54,7.24,.46,.05,.91,.07,1.35,.07,4.39,0,7.82-2.23,10.52-5.74,3.55-4.62,4.73-9.98,4.63-15.72-.22-2.98-.35-5.98-.69-8.95-.42-3.69-1.12-7.34-3.03-10.62-1.51-2.6-3.58-3.97-6.12-3.97h0Zm-31.05,31.94c-1.66,0-3.28,.72-4.75,2.08-.98,.91-1.85,1.98-2.55,3.12-2.51,4.08-3.56,8.61-3.84,14.39-.1,7.18,3.08,13.71,10.2,17.92,2.23,1.32,4.5,1.94,6.64,1.94,5.13,0,9.54-3.55,11.01-9.58,.68-2.8,.72-5.62,.08-8.4-1.35-5.86-4.24-11-7.96-15.64-1.43-1.78-3.21-3.37-5.12-4.63-1.23-.81-2.48-1.2-3.71-1.2h0Zm89.64,.07c-1.51,0-3.09,.54-4.68,1.64-.86,.59-1.69,1.28-2.41,2.04-4.35,4.57-7.33,9.97-9.3,15.91-.61,1.85-.73,3.87-1.05,5.66,.26,1.75,.37,3.32,.75,4.82,1.45,5.84,5.84,9.24,10.96,9.24,1.93,0,3.97-.48,6-1.51,2.61-1.32,4.72-3.23,6.5-5.52,4.27-5.5,4.98-11.74,3.75-18.36-.74-3.98-2.1-7.73-4.76-10.88-1.72-2.03-3.67-3.05-5.74-3.05h0Zm-44.96,14.41c-7.79,0-13.88,3.52-17.97,10.19-3.26,5.32-7.19,9.96-11.99,13.93-1.58,1.31-3.05,2.81-4.33,4.41-3.46,4.36-5.38,9.31-4.5,14.94,1.04,6.62,5.2,10.83,11.2,13.28,3.44,1.41,6.9,2.04,10.37,2.04s7.12-.66,10.67-1.83c2.25-.74,4.47-1.12,6.7-1.12,2.23,0,4.45,.38,6.69,1.15,3.37,1.17,6.86,1.71,10.43,1.75,.08,0,.16,0,.24,0,3.96,0,8.06-.89,11.42-2.48,7.67-3.63,11.56-10.93,9.87-18.82-1.29-6.03-4.83-10.67-9.73-14.18-4.47-3.21-7.76-7.22-10.34-12.06-3.87-7.24-10.12-11.1-18.36-11.22-.13,0-.25,0-.38,0h0Z"/>
      </g>
      <g>
        <path class="cls-1" d="M57.42,121c-3.25,0-6.43-.62-9.43-1.85-5.67-2.32-8.84-6.04-9.67-11.36-.7-4.48,.6-8.74,3.99-13,1.16-1.47,2.5-2.83,3.97-4.05,4.94-4.09,9.03-8.85,12.52-14.55,3.66-5.97,8.98-9,15.83-9h.34c7.29,.11,12.74,3.44,16.2,9.9,2.89,5.41,6.52,9.63,11.09,12.91,4.73,3.39,7.67,7.66,8.74,12.67,1.44,6.73-1.81,12.88-8.5,16.04-3,1.42-6.77,2.23-10.34,2.23h-.23c-3.41-.04-6.66-.58-9.64-1.61-2.48-.86-5-1.29-7.51-1.29s-4.97,.42-7.48,1.24c-3.44,1.13-6.76,1.71-9.89,1.71Z"/>
        <path class="cls-2" d="M74.63,69.7h.31c6.4,.09,10.99,2.9,14.03,8.58,3.07,5.75,6.95,10.26,11.83,13.76,4.26,3.06,6.8,6.71,7.75,11.17,1.19,5.54-1.54,10.62-7.12,13.25-2.68,1.27-6.06,2-9.27,2h-.19c-3.15-.04-6.13-.53-8.85-1.47-2.74-.95-5.54-1.43-8.33-1.43-2.72,0-5.5,.46-8.26,1.37-3.18,1.05-6.25,1.58-9.1,1.58s-5.74-.55-8.48-1.67c-4.86-1.99-7.45-4.99-8.15-9.43-.59-3.75,.55-7.37,3.47-11.06,1.06-1.33,2.27-2.57,3.61-3.68,5.15-4.27,9.42-9.24,13.06-15.17,3.22-5.25,7.7-7.8,13.7-7.8m0-5c-7.79,0-13.88,3.52-17.97,10.19-3.26,5.32-7.19,9.96-11.99,13.93-1.58,1.31-3.05,2.81-4.33,4.41-3.46,4.36-5.38,9.31-4.5,14.94,1.04,6.62,5.2,10.83,11.2,13.28,3.44,1.41,6.9,2.04,10.37,2.04s7.12-.66,10.67-1.83c2.25-.74,4.47-1.12,6.7-1.12s4.45,.38,6.69,1.15c3.37,1.17,6.86,1.71,10.43,1.75,.08,0,.16,0,.25,0,3.96,0,8.05-.89,11.41-2.48,7.67-3.63,11.56-10.93,9.87-18.82-1.29-6.03-4.83-10.67-9.73-14.18-4.47-3.21-7.76-7.22-10.34-12.06-3.87-7.24-10.12-11.1-18.36-11.22-.13,0-.25,0-.38,0h0Z"/>
      </g>
      <g>
        <path class="cls-1" d="M93.98,60.81c-3.21,0-6.26-1.62-8.57-4.57-2.59-3.31-3.94-7.21-4.13-11.94-.02-.59-.02-1.18,0-1.78v-.91c.13-5.38,.36-10.26,1.92-14.95,.46-1.38,1.09-2.72,1.83-3.85,.9-1.38,2.04-2.08,3.4-2.08,.48,0,.99,.09,1.52,.27,2.02,.68,3.82,1.59,5.19,2.64,6.13,4.68,9.88,10.36,11.15,16.9,1.23,6.3-.33,11.89-4.62,16.63-2.14,2.36-4.86,3.65-7.67,3.65Z"/>
        <path class="cls-2" d="M88.41,23.23c.21,0,.45,.05,.72,.14,1.77,.59,3.31,1.37,4.47,2.26,5.7,4.36,9.04,9.39,10.21,15.39,1.07,5.48-.28,10.35-4.02,14.47-1.68,1.85-3.69,2.83-5.82,2.83-2.43,0-4.77-1.28-6.6-3.61-2.26-2.88-3.43-6.31-3.6-10.5-.02-.51-.01-1.06,0-1.65,0-.29,0-.58,0-.87,.12-5.21,.34-9.88,1.78-14.22,.39-1.19,.93-2.32,1.55-3.28,.61-.94,1.11-.95,1.3-.95m-4.63,18.39h0m4.63-23.39c-2.21,0-4.14,1.14-5.49,3.22-.88,1.36-1.59,2.88-2.1,4.43-1.69,5.1-1.91,10.42-2.04,15.74,0,.93-.03,1.86,0,2.78,.2,4.93,1.59,9.46,4.66,13.38,2.87,3.66,6.7,5.53,10.53,5.53,3.4,0,6.8-1.47,9.52-4.47,4.84-5.33,6.59-11.79,5.22-18.79-1.5-7.68-5.94-13.71-12.09-18.4-1.73-1.33-3.83-2.32-5.91-3.02-.8-.27-1.57-.4-2.32-.4h0Z"/>
      </g>
      <g>
        <path class="cls-1" d="M55.68,60.78c-.36,0-.73-.02-1.1-.06-3.63-.36-6.46-2.33-8.64-6.02-3.72-6.29-4.16-12.38-1.36-18.63,2.81-6.25,6.7-10.78,11.9-13.86,.99-.58,2.18-1.04,3.35-1.3,.41-.09,.8-.13,1.16-.13,.59,0,2.37,0,3.95,2.73,1.76,3.03,2.35,6.58,2.7,9.65,.23,2,.36,4.07,.49,6.07,.06,.9,.12,1.81,.18,2.71,.09,5.76-1.25,10.36-4.11,14.08-2.47,3.21-5.26,4.77-8.54,4.77Z"/>
        <path class="cls-2" d="M61,23.27c.3,0,.93,0,1.79,1.48,1.52,2.63,2.05,5.72,2.38,8.68,.22,1.94,.35,3.89,.48,5.95,.06,.89,.12,1.77,.18,2.65,.07,5.21-1.07,9.16-3.59,12.45-2.61,3.4-5,3.79-6.56,3.79-.28,0-.56-.01-.85-.04-1.78-.18-4.41-.87-6.74-4.81-3.27-5.54-3.68-10.88-1.23-16.34,2.59-5.76,6.15-9.93,10.9-12.73,.76-.45,1.69-.81,2.61-1.01,.23-.05,.45-.08,.64-.08m0-5c-.54,0-1.11,.06-1.69,.19-1.42,.31-2.85,.85-4.09,1.59-5.97,3.53-10.1,8.73-12.91,14.99-3.24,7.21-2.47,14.24,1.48,20.93,2.35,3.98,5.77,6.76,10.54,7.24,.46,.05,.91,.07,1.35,.07,4.39,0,7.82-2.23,10.52-5.74,3.55-4.62,4.73-9.98,4.63-15.72-.22-2.98-.35-5.98-.69-8.95-.42-3.69-1.12-7.34-3.03-10.62-1.51-2.6-3.57-3.97-6.12-3.97h0Z"/>
      </g>
      <g>
        <path class="cls-1" d="M113.85,87.11c-4.14,0-7.41-2.82-8.53-7.35-.22-.87-.33-1.8-.47-2.88-.05-.43-.11-.86-.17-1.31,.07-.45,.14-.92,.2-1.39,.17-1.2,.34-2.44,.69-3.51,1.98-5.99,4.84-10.89,8.74-14.98,.59-.62,1.26-1.19,2.01-1.7,1.16-.8,2.26-1.2,3.27-1.2,1.33,0,2.62,.73,3.83,2.17,2.1,2.48,3.44,5.57,4.21,9.72,1.25,6.69,.21,11.89-3.27,16.37-1.69,2.18-3.54,3.76-5.65,4.83-1.63,.82-3.27,1.24-4.87,1.24Z"/>
        <path class="cls-2" d="M119.59,55.29c.7,0,1.43,.7,1.93,1.28,1.81,2.14,2.97,4.86,3.66,8.56,1.1,5.94,.22,10.51-2.78,14.38-1.46,1.88-3.03,3.23-4.8,4.13-1.28,.64-2.53,.97-3.74,.97-2.98,0-5.26-2.04-6.11-5.45-.18-.73-.29-1.59-.42-2.59-.04-.32-.08-.64-.13-.97,.06-.36,.11-.72,.15-1.08,.16-1.14,.31-2.22,.59-3.07,1.86-5.63,4.54-10.22,8.18-14.04,.46-.48,1.02-.96,1.62-1.37,.71-.49,1.37-.76,1.85-.76m0-5c-1.51,0-3.09,.54-4.68,1.64-.86,.59-1.69,1.28-2.41,2.04-4.35,4.57-7.33,9.97-9.3,15.91-.61,1.85-.73,3.87-1.05,5.66,.26,1.75,.37,3.32,.75,4.82,1.45,5.84,5.84,9.24,10.96,9.24,1.93,0,3.97-.49,6-1.51,2.61-1.32,4.72-3.23,6.5-5.52,4.27-5.5,4.98-11.74,3.75-18.36-.74-3.98-2.1-7.73-4.76-10.88-1.72-2.03-3.67-3.05-5.74-3.05h0Z"/>
      </g>
      <g>
        <path class="cls-1" d="M35.65,87.17c-1.78,0-3.58-.54-5.36-1.59-5.97-3.53-9.07-8.97-8.97-15.73,.27-5.67,1.31-9.61,3.47-13.12,.59-.95,1.32-1.85,2.12-2.6,1.01-.94,2.04-1.41,3.05-1.41,.75,0,1.54,.27,2.33,.79,1.73,1.14,3.3,2.56,4.54,4.11,3.88,4.82,6.32,9.61,7.48,14.63,.55,2.38,.52,4.82-.07,7.25-1.16,4.73-4.45,7.67-8.58,7.67Z"/>
        <path class="cls-2" d="M29.95,55.22c.32,0,.69,.21,.95,.38,1.52,1,2.89,2.24,3.97,3.59,3.63,4.52,5.92,8.98,6.99,13.63,.46,2,.44,4.05-.06,6.1-.88,3.61-3.18,5.77-6.15,5.77-1.32,0-2.7-.42-4.09-1.24-5.13-3.03-7.81-7.69-7.75-13.46,.26-5.25,1.19-8.82,3.1-11.92,.47-.76,1.06-1.48,1.7-2.08,.51-.47,1-.75,1.35-.75m0-5c-1.66,0-3.28,.72-4.75,2.08-.98,.91-1.85,1.98-2.55,3.12-2.51,4.08-3.56,8.61-3.84,14.39-.1,7.18,3.08,13.71,10.2,17.92,2.23,1.32,4.49,1.94,6.64,1.94,5.13,0,9.54-3.55,11.01-9.58,.68-2.8,.72-5.62,.08-8.4-1.35-5.86-4.24-11-7.96-15.64-1.43-1.78-3.21-3.37-5.12-4.63-1.23-.81-2.48-1.2-3.71-1.2h0Z"/>
      </g>
    </g>
  </g>
</svg>