<?xml version="1.0" encoding="UTF-8"?>
<svg id="Calque_1" data-name="Calque 1" xmlns="http://www.w3.org/2000/svg" viewBox="0 0 141.73 141.73">
  <defs>
    <style>
      .cls-1 {
        fill: #010101;
      }

      .cls-2 {
        fill: none;
        stroke: #010101;
        stroke-linecap: round;
        stroke-linejoin: round;
        stroke-width: 10px;
      }
    </style>
  </defs>
  <path class="cls-2" d="M34.32,55.72c0-14.2,0-21.31,3.41-26.41,1.48-2.21,3.37-4.11,5.58-5.58,5.1-3.41,12.2-3.41,26.41-3.41s21.31,0,26.41,3.41c2.21,1.48,4.1,3.37,5.58,5.58,3.41,5.1,3.41,12.2,3.41,26.41v30.34c0,14.2,0,21.31-3.41,26.41-1.48,2.21-3.37,4.1-5.58,5.58-5.1,3.41-12.2,3.41-26.41,3.41s-21.31,0-26.41-3.41c-2.21-1.48-4.11-3.37-5.58-5.58-3.41-5.1-3.41-12.2-3.41-26.41v-30.34Z"/>
  <circle class="cls-1" cx="53.46" cy="101.17" r="5.06"/>
  <circle class="cls-1" cx="70.21" cy="101.17" r="5.06"/>
  <circle class="cls-1" cx="86.96" cy="101.17" r="5.06"/>
  <g id="d01EMF">
    <g>
      <path class="cls-1" d="M76.23,79.87c1.53,.01,3.11-.32,4.41-.94,2.9-1.37,4.38-4.14,3.74-7.12-.49-2.28-1.83-4.04-3.68-5.37-1.69-1.21-2.93-2.73-3.91-4.56-1.46-2.74-3.83-4.2-6.95-4.25-3.02-.04-5.37,1.29-6.94,3.86-1.23,2.01-2.72,3.77-4.54,5.27-.6,.5-1.16,1.06-1.64,1.67-1.31,1.65-2.04,3.52-1.7,5.65,.39,2.5,1.97,4.1,4.24,5.03,2.63,1.08,5.31,.95,7.96,.08,1.7-.56,3.37-.57,5.07,.01,1.28,.44,2.6,.65,3.95,.66Zm-4.97-30.97c0,.35-.01,.7,0,1.05,.07,1.87,.6,3.58,1.76,5.06,2.05,2.61,5.4,2.82,7.59,.4,1.83-2.02,2.49-4.46,1.98-7.11-.57-2.91-2.25-5.19-4.57-6.96-.66-.5-1.45-.88-2.24-1.14-1.2-.4-2.27,.02-2.96,1.07-.33,.51-.6,1.09-.8,1.67-.64,1.93-.72,3.94-.77,5.96Zm-3.01,.08c-.08-1.13-.13-2.26-.26-3.39-.16-1.4-.42-2.78-1.15-4.02-.69-1.19-1.7-1.7-2.96-1.43-.54,.12-1.08,.32-1.55,.6-2.26,1.34-3.82,3.3-4.89,5.67-1.23,2.73-.93,5.39,.56,7.92,.89,1.51,2.18,2.56,3.99,2.74,1.91,.19,3.37-.68,4.49-2.15,1.35-1.75,1.79-3.78,1.75-5.95Zm11.85,12.76c.1,.66,.14,1.26,.28,1.82,.76,3.04,3.62,4.34,6.42,2.93,.99-.5,1.79-1.22,2.46-2.09,1.62-2.08,1.88-4.44,1.42-6.95-.28-1.51-.79-2.93-1.8-4.12-1.12-1.33-2.52-1.52-3.95-.53-.33,.22-.64,.49-.91,.77-1.65,1.73-2.78,3.77-3.52,6.02-.23,.7-.28,1.47-.4,2.14Zm-31.53-2.17c-.04,2.72,1.17,5.19,3.86,6.78,2.86,1.69,5.89,.34,6.68-2.89,.26-1.06,.27-2.13,.03-3.18-.51-2.22-1.6-4.16-3.01-5.92-.54-.67-1.22-1.28-1.94-1.75-1.1-.72-2.23-.56-3.2,.33-.37,.34-.7,.75-.97,1.18-.95,1.54-1.35,3.26-1.45,5.45Z"/>
      <path class="cls-1" d="M76.23,79.86c-1.35-.01-2.67-.22-3.95-.66-1.69-.59-3.36-.57-5.07-.01-2.66,.87-5.33,1-7.96-.08-2.27-.93-3.84-2.52-4.24-5.03-.33-2.13,.39-4,1.7-5.65,.48-.61,1.04-1.17,1.64-1.67,1.81-1.5,3.3-3.26,4.54-5.27,1.57-2.57,3.92-3.9,6.94-3.86,3.12,.05,5.49,1.51,6.95,4.25,.98,1.83,2.22,3.35,3.91,4.56,1.85,1.33,3.19,3.09,3.68,5.37,.64,2.99-.83,5.75-3.74,7.12-1.3,.61-2.88,.95-4.41,.94Z"/>
      <path class="cls-1" d="M71.25,48.89c.05-2.01,.13-4.02,.77-5.96,.19-.58,.46-1.16,.8-1.67,.68-1.05,1.76-1.47,2.96-1.07,.79,.26,1.58,.64,2.24,1.14,2.33,1.78,4.01,4.06,4.57,6.96,.52,2.65-.15,5.09-1.98,7.11-2.19,2.42-5.54,2.21-7.59-.4-1.16-1.48-1.69-3.2-1.76-5.06-.01-.35,0-.7,0-1.05Z"/>
      <path class="cls-1" d="M68.25,48.97c.04,2.17-.41,4.2-1.75,5.95-1.13,1.47-2.59,2.34-4.49,2.15-1.81-.18-3.1-1.23-3.99-2.74-1.5-2.53-1.79-5.19-.56-7.92,1.06-2.37,2.63-4.34,4.89-5.67,.47-.28,1.01-.49,1.55-.6,1.26-.27,2.26,.24,2.96,1.43,.72,1.24,.99,2.62,1.15,4.02,.13,1.12,.18,2.26,.26,3.39Z"/>
      <path class="cls-1" d="M80.1,61.73c.12-.68,.17-1.44,.4-2.14,.75-2.25,1.87-4.29,3.52-6.02,.27-.29,.58-.55,.91-.77,1.43-.98,2.82-.79,3.95,.53,1.01,1.19,1.52,2.61,1.8,4.12,.47,2.5,.2,4.86-1.42,6.95-.67,.87-1.47,1.59-2.46,2.09-2.8,1.41-5.66,.11-6.42-2.93-.14-.57-.18-1.16-.28-1.82Z"/>
      <path class="cls-1" d="M48.56,59.56c.1-2.19,.5-3.9,1.45-5.45,.26-.43,.6-.84,.97-1.18,.97-.9,2.1-1.06,3.2-.33,.72,.47,1.4,1.08,1.94,1.75,1.41,1.75,2.5,3.7,3.01,5.92,.24,1.05,.23,2.12-.03,3.18-.79,3.23-3.81,4.59-6.68,2.89-2.69-1.59-3.9-4.07-3.86-6.78Z"/>
    </g>
  </g>
</svg>