<?xml version="1.0" encoding="UTF-8"?>
<svg id="Calque_1" data-name="Calque 1" xmlns="http://www.w3.org/2000/svg" viewBox="0 0 141.73 141.73">
  <defs>
    <style>
      .cls-1 {
        fill: none;
        stroke-width: 3px;
      }

      .cls-1, .cls-2 {
        stroke: #c93c67;
        stroke-linecap: round;
        stroke-linejoin: round;
      }

      .cls-3 {
        fill: #c93c67;
      }

      .cls-2 {
        fill: #e8aabf;
        stroke-width: 10px;
      }
    </style>
  </defs>
  <path class="cls-2" d="M120.97,75.71l-1.41,9.8c-2.47,17.14-3.7,25.71-9.65,30.83-5.95,5.12-14.67,5.12-32.11,5.12h-11.19c-17.44,0-26.16,0-32.11-5.12-5.95-5.12-7.18-13.69-9.65-30.83l-1.41-9.8c-1.92-13.34-2.88-20.02-.15-25.72,2.73-5.7,8.56-9.17,20.2-16.11l7.01-4.17c10.57-6.3,15.86-9.45,21.7-9.45s11.13,3.15,21.7,9.45l7.01,4.17c11.64,6.94,17.46,10.4,20.2,16.11"/>
  <circle class="cls-3" cx="71.36" cy="61.87" r="15.36"/>
  <g>
    <path class="cls-1" d="M54.7,105.33v-13.72h7.11c1.63,.82,2.64,2.5,2.59,4.3-.05,1.71-1.05,3.26-2.59,4.03h-6.87"/>
    <line class="cls-1" x1="61.82" y1="99.94" x2="64.79" y2="105.33"/>
    <polyline class="cls-1" points="78 105.33 69.72 105.33 69.72 98.47 69.72 91.62 78 91.62"/>
    <line class="cls-1" x1="69.72" y1="98.47" x2="76.89" y2="98.47"/>
    <g>
      <path class="cls-1" d="M81.46,98.6c-.02-2.71,1.49-5.18,3.84-6.33,2.4-1.17,5.25-.75,7.26,1.06"/>
      <path class="cls-1" d="M81.46,98.35c-.02,2.71,1.49,5.18,3.84,6.33,2.4,1.17,5.25,.75,7.26-1.06"/>
    </g>
  </g>
</svg>