<?xml version="1.0" encoding="UTF-8"?>
<svg id="Calque_1" data-name="Calque 1" xmlns="http://www.w3.org/2000/svg" viewBox="0 0 141.73 141.73">
  <defs>
    <style>
      .cls-1 {
        fill: #e8aabf;
        stroke: #c93c67;
        stroke-linecap: round;
        stroke-linejoin: round;
        stroke-width: 10px;
      }
    </style>
  </defs>
  <path class="cls-1" d="M122.01,75.71l-1.41,9.8c-2.47,17.14-3.7,25.71-9.65,30.83-5.95,5.12-14.67,5.12-32.11,5.12h-11.19c-17.44,0-26.16,0-32.11-5.12-5.95-5.12-7.18-13.69-9.65-30.83l-1.41-9.8c-1.92-13.34-2.88-20.02-.15-25.72,2.73-5.7,8.56-9.17,20.2-16.11l7.01-4.17c10.57-6.3,15.86-9.45,21.7-9.45s11.13,3.15,21.7,9.45l7.01,4.17c11.64,6.94,17.46,10.4,20.2,16.11"/>
  <circle class="cls-1" cx="72.4" cy="61.87" r="15.36"/>
</svg>