<?xml version="1.0" encoding="UTF-8"?>
<svg id="Calque_1" data-name="Calque 1" xmlns="http://www.w3.org/2000/svg" viewBox="0 0 141.73 141.73">
  <defs>
    <style>
      .cls-1 {
        fill: none;
        stroke: #010101;
        stroke-linecap: round;
        stroke-linejoin: round;
        stroke-width: 10px;
      }
    </style>
  </defs>
  <path class="cls-1" d="M92.65,53.21c3.69,4.92,5.88,11.03,5.88,17.65s-2.19,12.73-5.88,17.65m11.77-57.12c10.83,9.7,17.65,23.79,17.65,39.47s-6.82,29.77-17.65,39.47M25.57,53.21h5.3c3.24,0,4.86,0,6.36-.4,1.33-.36,2.59-.95,3.72-1.74,1.27-.9,2.31-2.14,4.38-4.63l15.45-18.54c2.56-3.08,3.85-4.61,4.96-4.77,.97-.14,1.94,.21,2.6,.94,.76,.84,.76,2.84,.76,6.85V110.82c0,4,0,6.01-.76,6.85-.66,.73-1.63,1.08-2.6,.94-1.12-.16-2.4-1.7-4.96-4.77l-15.45-18.54c-2.08-2.49-3.11-3.74-4.38-4.63-1.13-.79-2.38-1.38-3.72-1.74-1.5-.4-3.12-.4-6.36-.4h-5.3c-3.3,0-4.94,0-6.2-.64-1.11-.56-2.01-1.46-2.57-2.57-.64-1.26-.64-2.91-.64-6.2v-16.47c0-3.3,0-4.94,.64-6.2,.56-1.11,1.46-2.01,2.57-2.57,1.26-.64,2.91-.64,6.2-.64Z"/>
</svg>