<?xml version="1.0" encoding="UTF-8"?>
<svg id="Calque_1" data-name="Calque 1" xmlns="http://www.w3.org/2000/svg" viewBox="0 0 141.73 141.73">
  <defs>
    <style>
      .cls-1, .cls-2 {
        fill: none;
        stroke: #010101;
        stroke-linecap: round;
        stroke-linejoin: round;
        stroke-width: 10px;
      }

      .cls-2 {
        fill-rule: evenodd;
      }
    </style>
  </defs>
  <line class="cls-1" x1="28" y1="42.68" x2="113.43" y2="42.68"/>
  <line class="cls-1" x1="57.94" y1="67.79" x2="60.53" y2="92.31"/>
  <path class="cls-2" d="M99.31,42.68c-.89,.05-4.22,.12-7.35-2.22-3.09-2.31-3.85-5.58-3.85-5.58-.07-.64-.44-3.18-2.66-5.16-1.9-1.69-4.02-1.96-4.73-2.02h-10.01s.15,0,.15,0h-10.01c-.71,.06-2.83,.33-4.73,2.02-2.22,1.98-2.59,4.53-2.66,5.16,0,0-.76,3.28-3.85,5.58-3.13,2.34-6.46,2.27-7.35,2.22"/>
  <line class="cls-1" x1="83.64" y1="67.79" x2="81.05" y2="92.31"/>
  <path class="cls-2" d="M104.97,54.84l-3.35,47.99s.76,10.82-12.64,15.54h-18.11s-.15,0-.15,0h-18.11c-13.41-4.72-12.64-15.54-12.64-15.54l-3.35-47.99"/>
</svg>