<?xml version="1.0" encoding="UTF-8"?>
<svg id="Calque_1" data-name="Calque 1" xmlns="http://www.w3.org/2000/svg" viewBox="0 0 141.73 141.73">
  <defs>
    <style>
      .cls-1 {
        fill: none;
        stroke: #010101;
        stroke-linecap: round;
        stroke-linejoin: round;
        stroke-width: 10px;
      }
    </style>
  </defs>
  <path class="cls-1" d="M94.82,59.28l14.95-8.97c4.6-2.76,6.9-4.14,8.8-3.97,1.65,.15,3.16,1.01,4.14,2.34,1.13,1.53,1.13,4.22,1.13,9.58v25.23c0,5.37,0,8.05-1.13,9.58-.98,1.34-2.49,2.19-4.14,2.34-1.89,.18-4.19-1.2-8.8-3.97l-14.95-8.97m-56.87,23.21h38.3c6.5,0,9.75,0,12.23-1.26,2.18-1.11,3.96-2.89,5.07-5.07,1.26-2.48,1.26-5.73,1.26-12.23V54.64c0-6.5,0-9.75-1.26-12.23-1.11-2.18-2.89-3.96-5.07-5.07-2.48-1.26-5.73-1.26-12.23-1.26H37.96c-6.5,0-9.75,0-12.23,1.26-2.18,1.11-3.96,2.89-5.07,5.07-1.26,2.48-1.26,5.73-1.26,12.23v32.49c0,6.5,0,9.75,1.26,12.23,1.11,2.18,2.89,3.96,5.07,5.07,2.48,1.26,5.73,1.26,12.23,1.26Z"/>
</svg>